<svg width="13" height="14" viewBox="0 0 13 14" fill="none" xmlns="http://www.w3.org/2000/svg">
<path fill-rule="evenodd" clip-rule="evenodd" d="M9.94203 1.82609V0H8.31884V1.82609H3.84348V0.811594V0.0115942H2.24348V0.811594V1.82609H2.02899C0.908408 1.82609 0 2.73449 0 3.85507V11.971C0 13.0916 0.908408 14 2.02899 14H10.1449C11.2655 14 12.1739 13.0916 12.1739 11.971V3.85507C12.1739 2.73449 11.2655 1.82609 10.1449 1.82609H9.94203ZM2.02899 3.44928H10.1449C10.369 3.44928 10.5507 3.63096 10.5507 3.85507V5.07246H1.62319V3.85507C1.62319 3.63096 1.80487 3.44928 2.02899 3.44928ZM1.62319 6.69565H10.5507V11.971C10.5507 12.1951 10.369 12.3768 10.1449 12.3768H2.02899C1.80487 12.3768 1.62319 12.1951 1.62319 11.971V6.69565Z" fill="#000418"/>
</svg>
