<svg width="16" height="16" viewBox="0 0 16 16" fill="none" xmlns="http://www.w3.org/2000/svg">
<g clip-path="url(#clip0_0_61)">
<path d="M7.99278 0.800002C4.01838 0.800002 0.799984 4.0256 0.799984 8C0.799984 11.9744 4.01838 15.2 7.99278 15.2C11.9744 15.2 15.2 11.9744 15.2 8C15.2 4.0256 11.9744 0.800002 7.99278 0.800002ZM7.99998 13.76C4.81758 13.76 2.23998 11.1824 2.23998 8C2.23998 4.8176 4.81758 2.24 7.99998 2.24C11.1824 2.24 13.76 4.8176 13.76 8C13.76 11.1824 11.1824 13.76 7.99998 13.76Z" fill="#000418"/>
<path d="M7.5 4.5V8.5L10.5 10" stroke="#000418" stroke-width="1.4" stroke-linecap="square"/>
</g>
<defs>
<clipPath id="clip0_0_61">
<rect width="16" height="16" fill="white"/>
</clipPath>
</defs>
</svg>
