<svg width="18" height="18" viewBox="0 0 18 18" fill="none" xmlns="http://www.w3.org/2000/svg">
<path d="M9.66667 17H8.33333C7.782 17 7.33333 16.5513 7.33333 16V14.7587C6.90667 14.6353 6.496 14.465 6.10633 14.2497L5.22833 15.128C4.85033 15.506 4.192 15.5053 3.814 15.128L2.871 14.1853C2.682 13.9967 2.578 13.7453 2.578 13.4783C2.578 13.2113 2.682 12.96 2.871 12.7713L3.74933 11.8927C3.53433 11.504 3.364 11.0933 3.241 10.6663H2C1.44867 10.6663 1 10.2177 1 9.66633V8.333C1 8.06567 1.104 7.81467 1.29267 7.626C1.48167 7.43733 1.73267 7.333 2 7.333H3.24133C3.36467 6.907 3.53467 6.496 3.75 6.10667L2.872 5.22833C2.482 4.83833 2.482 4.20433 2.872 3.81433L3.81467 2.87133C4.19233 2.494 4.851 2.49333 5.229 2.87133L6.10733 3.74967C6.49667 3.53467 6.90733 3.36433 7.33333 3.24133V2C7.33333 1.44867 7.782 1 8.33333 1H9.66667C10.218 1 10.6667 1.44867 10.6667 2V3.24133C11.0933 3.36467 11.504 3.535 11.8927 3.74967L12.771 2.87133C13.149 2.494 13.8073 2.49333 14.1853 2.87133L15.1283 3.814C15.3173 4.00267 15.4213 4.254 15.4213 4.521C15.4213 4.788 15.3173 5.03933 15.1283 5.228L14.2503 6.10633C14.4657 6.49567 14.636 6.90633 14.759 7.333H16C16.5513 7.333 17 7.78167 17 8.333V9.66633C17 9.93367 16.896 10.1847 16.7073 10.3733C16.5187 10.562 16.2673 10.6663 16 10.6663H14.7587C14.6353 11.093 14.465 11.504 14.25 11.893L15.128 12.7713C15.518 13.1613 15.518 13.7953 15.128 14.1853L14.1853 15.1283C13.8073 15.506 13.149 15.506 12.771 15.1283L11.8933 14.25C11.504 14.4653 11.093 14.6353 10.667 14.7587V16C10.6667 16.5513 10.2183 17 9.66667 17ZM6.05233 13.4993C6.112 13.4993 6.17233 13.5153 6.226 13.548C6.698 13.8367 7.209 14.0487 7.745 14.1783C7.89467 14.2147 8 14.3483 8 14.5023V16C8 16.184 8.14967 16.3333 8.33333 16.3333H9.66667C9.85033 16.3333 10 16.184 10 16V14.5023C10 14.3483 10.1053 14.2147 10.255 14.1783C10.7903 14.0487 11.3013 13.8373 11.7737 13.5483C11.9057 13.468 12.0743 13.4883 12.1833 13.597L13.2427 14.6567C13.3677 14.7813 13.589 14.782 13.7143 14.6567L14.657 13.7137C14.787 13.5837 14.787 13.3723 14.657 13.2423L13.5973 12.1827C13.4883 12.074 13.4683 11.9043 13.5487 11.773C13.837 11.3017 14.0487 10.7907 14.1783 10.2543C14.2143 10.1047 14.3483 9.999 14.5023 9.999H16C16.089 9.999 16.173 9.96433 16.236 9.90133C16.2987 9.83933 16.3333 9.75567 16.3333 9.66633V8.333C16.3333 8.149 16.1837 7.99967 16 7.99967H14.5023C14.3483 7.99967 14.2143 7.89433 14.1783 7.74433C14.049 7.20867 13.8373 6.69767 13.5487 6.22567C13.4683 6.09433 13.4883 5.92533 13.5973 5.816L14.657 4.75633C14.719 4.694 14.7547 4.60833 14.7547 4.52067C14.7547 4.433 14.719 4.347 14.657 4.285L13.714 3.34233C13.588 3.21667 13.3683 3.21667 13.2423 3.34233L12.1827 4.402C12.074 4.51133 11.905 4.53167 11.773 4.45067C11.302 4.16267 10.7913 3.95067 10.255 3.821C10.1057 3.78533 10 3.65167 10 3.49767V2C10 1.816 9.85033 1.66667 9.66667 1.66667H8.33333C8.14967 1.66667 8 1.816 8 2V3.49767C8 3.65167 7.89467 3.78533 7.745 3.82167C7.20967 3.951 6.69867 4.16267 6.22633 4.45133C6.09467 4.53167 5.92567 4.51167 5.817 4.40267L4.75733 3.343C4.63133 3.21733 4.41167 3.21733 4.28567 3.343L3.34333 4.28567C3.21333 4.41567 3.21333 4.627 3.34333 4.757L4.403 5.81667C4.512 5.92533 4.532 6.095 4.45167 6.22633C4.163 6.69833 3.95133 7.20933 3.822 7.74467C3.786 7.89433 3.652 8 3.498 8H2C1.911 8 1.827 8.03467 1.764 8.09767C1.70133 8.16 1.66667 8.24367 1.66667 8.333V9.66633C1.66667 9.85033 1.81633 9.99967 2 9.99967H3.49767C3.65167 9.99967 3.78567 10.105 3.82167 10.255C3.95133 10.791 4.163 11.302 4.45133 11.7733C4.53167 11.9047 4.51167 12.0737 4.40267 12.183L3.343 13.243C3.281 13.3053 3.24533 13.391 3.24533 13.4787C3.24533 13.5663 3.281 13.6523 3.343 13.7143L4.286 14.657C4.41167 14.7827 4.63167 14.7827 4.75767 14.657L5.817 13.5973C5.881 13.5327 5.966 13.4993 6.05233 13.4993Z" fill="#358CD3" stroke="#358CD3" stroke-width="0.3"/>
<path d="M9.00008 12.3334C7.16208 12.3334 5.66675 10.838 5.66675 9.00002C5.66675 7.16202 7.16208 5.66669 9.00008 5.66669C10.8381 5.66669 12.3334 7.16202 12.3334 9.00002C12.3334 10.838 10.8384 12.3334 9.00008 12.3334ZM9.00008 6.33335C7.52975 6.33335 6.33341 7.52969 6.33341 9.00002C6.33341 10.4704 7.52975 11.6667 9.00008 11.6667C10.4704 11.6667 11.6667 10.4704 11.6667 9.00002C11.6667 7.52969 10.4707 6.33335 9.00008 6.33335Z" fill="#358CD3" stroke="#358CD3" stroke-width="0.3"/>
</svg>
