<svg width="14" height="14" viewBox="0 0 14 14" fill="none" xmlns="http://www.w3.org/2000/svg">
<path fill-rule="evenodd" clip-rule="evenodd" d="M6.76429 0.0976314L4.64297 2.21896C4.5128 2.34913 4.5128 2.56019 4.64297 2.69036C4.77315 2.82053 4.9842 2.82053 5.11438 2.69036L6.66666 1.13807L6.66666 6.66503L1.13841 6.66344L2.69226 5.11272C2.82256 4.98267 2.82278 4.77162 2.69273 4.64131C2.56269 4.511 2.35163 4.51079 2.22133 4.64083L0.0978689 6.76002C-0.0324373 6.89006 -0.0326499 7.10112 0.097394 7.23143L2.21658 9.35489C2.34662 9.48519 2.55768 9.4854 2.68798 9.35536C2.81829 9.22532 2.8185 9.01426 2.68846 8.88396L1.13774 7.3301L6.66666 7.33169V9.66665L6.66666 11.3333L6.66666 11.3339V12.8619L5.11438 11.3096C4.9842 11.1795 4.77315 11.1795 4.64297 11.3096C4.5128 11.4398 4.5128 11.6509 4.64297 11.781L6.7643 13.9024C6.89447 14.0325 7.10553 14.0325 7.2357 13.9024L9.35702 11.781C9.4872 11.6509 9.4872 11.4398 9.35702 11.3096C9.22685 11.1795 9.01579 11.1795 8.88562 11.3096L7.33333 12.8619L7.33333 11.3333L7.33333 9.66665L7.33333 9.66604V7.33189L9.64364 7.33255C9.65114 7.33306 9.6587 7.33332 9.66633 7.33333L12.8616 7.33655L11.3077 8.88727C11.1774 9.01732 11.1772 9.22837 11.3073 9.35868C11.4373 9.48899 11.6484 9.4892 11.7787 9.35915L13.9021 7.23997C14.0324 7.10992 14.0326 6.89887 13.9026 6.76856L11.7834 4.6451C11.6534 4.5148 11.4423 4.51459 11.312 4.64463C11.1817 4.77467 11.1815 4.98573 11.3115 5.11603L12.8623 6.66988L12.3763 6.66939C12.3623 6.6676 12.3481 6.66667 12.3337 6.66666L7.33333 6.66522L7.33333 1.13807L8.88562 2.69036C9.01579 2.82053 9.22685 2.82053 9.35702 2.69036C9.4872 2.56019 9.4872 2.34913 9.35702 2.21896L7.2357 0.0976314C7.10553 -0.0325438 6.89447 -0.0325438 6.76429 0.0976314Z" fill="black"/>
</svg>
