<svg width="19" height="19" viewBox="0 0 19 19" fill="none" xmlns="http://www.w3.org/2000/svg">
<path d="M14.826 13.7503C14.569 13.4132 14.0874 13.3482 13.7503 13.6051C12.5164 14.5456 11.0448 15.0567 9.49377 15.0834C7.42295 15.0815 5.45256 14.1044 3.63691 12.1793C2.63402 11.1159 1.95381 10.0369 1.64435 9.50187C2.5647 7.90034 3.77625 6.52002 5.25027 5.39438C5.58715 5.1371 5.65172 4.65546 5.39444 4.31858C5.13716 3.9817 4.65552 3.91713 4.31864 4.17441C2.55984 5.51747 1.13751 7.18714 0.0912148 9.13705C-0.0266817 9.35681 -0.030504 9.62014 0.0810468 9.84316C0.115484 9.91211 0.942727 11.5499 2.48997 13.2003C3.40928 14.1809 4.3952 14.9649 5.42042 15.5305C6.72875 16.2524 8.10131 16.6184 9.50004 16.6184C9.50423 16.6184 9.50839 16.6183 9.51258 16.6183C11.3957 16.5875 13.1829 15.9677 14.6808 14.8259C15.018 14.569 15.083 14.0874 14.826 13.7503Z" fill="#358CD3"/>
<path d="M18.919 9.15682C18.8845 9.08791 18.0572 7.45005 16.51 5.79969C15.5908 4.81907 14.6048 4.0351 13.5796 3.46948C12.2713 2.74763 10.8987 2.38162 9.50182 2.38162C8.88176 2.38006 8.26155 2.45109 7.65796 2.59236C7.24523 2.68896 6.98896 3.10187 7.08563 3.5146C7.18222 3.92733 7.59521 4.18361 8.00787 4.08694C8.49575 3.97276 8.99743 3.91642 9.50004 3.91661C11.5731 3.91661 13.5457 4.89366 15.3632 6.82064C16.3664 7.88438 17.0468 8.96378 17.3561 9.49864C16.9431 10.2189 16.4647 10.9035 15.9305 11.5382C15.6576 11.8626 15.6993 12.3467 16.0236 12.6196C16.1676 12.7408 16.343 12.7999 16.5174 12.7999C16.7361 12.7999 16.9533 12.707 17.105 12.5266C17.7962 11.7052 18.4033 10.8086 18.9094 9.86179C19.0267 9.64232 19.0303 9.37952 18.919 9.15682Z" fill="#358CD3"/>
<path d="M11.7062 10.6215C11.396 10.3326 10.9104 10.3497 10.6214 10.6598C10.3275 10.9752 9.92835 11.1573 9.49751 11.1725C9.06701 11.188 8.65565 11.0342 8.34022 10.7403C7.68906 10.1336 7.65295 9.11024 8.25973 8.45908C8.28548 8.43144 8.31261 8.40435 8.34033 8.37848C8.65042 8.08944 8.66745 7.60382 8.37844 7.29374C8.08943 6.98365 7.60378 6.96666 7.2937 7.25563C7.23974 7.30595 7.1869 7.35879 7.13673 7.41264C5.95297 8.683 6.02345 10.6796 7.29381 11.8633C7.88136 12.4108 8.63884 12.7086 9.43784 12.7086C9.47569 12.7086 9.51369 12.7079 9.55169 12.7066C10.3923 12.6769 11.1711 12.3217 11.7445 11.7063C12.0335 11.3961 12.0163 10.9105 11.7062 10.6215Z" fill="#358CD3"/>
<path d="M7.28681 8.4282C7.59697 8.71713 8.08262 8.69995 8.37159 8.3899C8.66546 8.07447 9.06465 7.89238 9.49549 7.87716C9.92599 7.86165 10.3373 8.01547 10.6528 8.30934C11.3039 8.91608 11.34 9.93944 10.7333 10.5906C10.7075 10.6182 10.6804 10.6453 10.6527 10.6712C10.3426 10.9602 10.3255 11.4459 10.6146 11.7559C10.9036 12.066 11.3892 12.083 11.6993 11.7941C11.7533 11.7437 11.8061 11.6909 11.8563 11.637C13.04 10.3667 12.9696 8.37009 11.6992 7.18633C11.1116 6.63886 10.3542 6.34109 9.55516 6.34109C9.51731 6.34109 9.47931 6.34176 9.44131 6.3431C8.60071 6.37275 7.82193 6.728 7.24848 7.34342C6.95954 7.65354 6.97669 8.13919 7.28681 8.4282Z" fill="#358CD3"/>
<path d="M16.7753 15.6898L2.3103 1.2248C2.0106 0.925067 1.52462 0.925067 1.22492 1.2248C0.925192 1.52449 0.925192 2.01044 1.22492 2.31017L15.6899 16.7752C15.8398 16.9251 16.0362 17 16.2327 17C16.4291 17 16.6255 16.9251 16.7753 16.7752C17.075 16.4755 17.075 15.9895 16.7753 15.6898Z" fill="#358CD3"/>
</svg>
