<svg width="88" height="88" viewBox="0 0 88 88" fill="#3d454c" xmlns="http://www.w3.org/2000/svg">
<path d="M84 44C81.791 44 80 45.791 80 48V76C80 78.21 78.21 80 76 80H12C9.79 80 8 78.21 8 76V12C8 9.79 9.79 8 12 8H40C42.209 8 44 6.209 44 4C44 1.791 42.209 0 40 0H12C5.373 0 0 5.373 0 12V76C0 82.627 5.373 88 12 88H76C82.627 88 88 82.627 88 76V48C88 45.791 86.209 44 84 44ZM88 4V28C88 30.209 86.209 32 84 32C81.791 32 80 30.209 80 28V13.656L47.229 46.426C45.668 47.988 43.135 47.988 41.574 46.426C40.012 44.865 40.012 42.332 41.574 40.77L74.343 8H60C57.791 8 56 6.209 56 4C56 1.791 57.791 0 60 0H84C86.209 0 88 1.791 88 4Z" fill="#3d454c"/>
</svg>